<mxfile host="app.diagrams.net" modified="2024-04-20T08:47:48.413Z" agent="Mozilla/5.0 (Windows NT 10.0; Win64; x64) AppleWebKit/537.36 (KHTML, like Gecko) Chrome/124.0.0.0 Safari/537.36" version="24.2.7" etag="EhATiJr1UsLxNXfj1sPr" type="github">
  <diagram name="Page-1" id="kumHMO5J8g2H_Pc09jRv">
    <mxGraphModel>
      <root>
        <mxCell id="0" />
        <mxCell id="1" parent="0" />
      </root>
    </mxGraphModel>
  </diagram>
</mxfile>
